# xmcd
#
# Track frame offsets:
#	150
#	17892
#	36367
#	62978
#	77626
#	102465
#	117683
#	136492
#	164215
#	181737
#	201607
#	214591
#	231653
#	255644
#
# Disc length: 3747 seconds
#
# Revision: 1
# Processed by: cddbd v1.5.2PL0 Copyright (c) Steve Scherf et al.
# Submitted via: audiograbber 1.83.01
#
DISCID=de0ea10e
DTITLE=Eric Clapton - Clapton
DYEAR=2010
DGENRE=
TTITLE0=Traveling Alone
TTITLE1=Rocking Chair
TTITLE2=River Runs Deep
TTITLE3=Judgement Day
TTITLE4=How Deep Is The Ocean
TTITLE5=Milkman
TTITLE6=Crazy About You Baby
TTITLE7=That's No Way To Get Along
TTITLE8=Everything Will Be Alright
TTITLE9=Diamonds
TTITLE10=When Somebody Thinks You're Wonderful
TTITLE11=Hard Times
TTITLE12=Rolling And Tumbling
TTITLE13=Autumn Leaves
EXTD=
EXTT0=
EXTT1=
EXTT2=
EXTT3=
EXTT4=
EXTT5=
EXTT6=
EXTT7=
EXTT8=
EXTT9=
EXTT10=
EXTT11=
EXTT12=
EXTT13=
PLAYORDER=
